# xmcd
#
# Track frame offsets: 
#        150
#        15747
#        31352
#        45601
#        59836
#        78876
#        97972
#        110149
#        122261
#        139304
#        156384
#        169490
#        182567
#        193891
#        205300
#        214693
#        224020
#        241115
#        258116
#
# Disc length: 3560 seconds
#
# Revision: 0
# Processed by: cddbd v1.5.2PL0 Copyright (c) Steve Scherf et al.
# Submitted via: ExactAudioCopy v1.0b4
#
DISCID=190de613
DTITLE=Eric Bibb - Guitar Tab Songbook Vol. 1
DYEAR=2015
DGENRE=Blues
TTITLE0=Champagne Habits (Instrumental Version)
TTITLE1=Champagne Habits (Acoustic Version)
TTITLE2=Come Back Baby (Instrumental Version)
TTITLE3=Come Back Baby (Acoustic Version)
TTITLE4=Connected (Instrumental Version)
TTITLE5=Connected (Acoustic Version)
TTITLE6=Don't Ever Let Nobody Drag Your Spirit Down (Instrumental Vers
TTITLE6=ion)
TTITLE7=Don't Ever Let Nobody Drag Your Spirit Down (Acoustic Version)
TTITLE8=Goin' Down Slow (Instrumental Version)
TTITLE9=Goin' Down Slow (Acoustic Version)
TTITLE10=In My Father's House (Instrumental Version)
TTITLE11=In My Father's House (Acoustic Version)
TTITLE12=Needed Time (Instrumental Version)
TTITLE13=Needed Time (Acoustic Version)
TTITLE14=On My Way to Bamako (Instrumental Version)
TTITLE15=On My Way to Bamako (Acoustic Version)
TTITLE16=Saucer 'n' Cup (Instrumental Version)
TTITLE17=Saucer 'n' Cup (Acoustic Version)
TTITLE18=Sebastian's Tune (Instrumental Version)
EXTD=
EXTT0=
EXTT1=
EXTT2=
EXTT3=
EXTT4=
EXTT5=
EXTT6=
EXTT7=
EXTT8=
EXTT9=
EXTT10=
EXTT11=
EXTT12=
EXTT13=
EXTT14=
EXTT15=
EXTT16=
EXTT17=
EXTT18=
PLAYORDER=
